<svg xmlns="http://www.w3.org/2000/svg" id="Layer_1" viewBox="0 0 203 120"> <defs> <style>.cls-1{fill:#fff;}.cls-2{fill:#666766;}.cls-3{fill:#edb83a;}</style> </defs> <title>201701_Gigya_Academy_Icons</title> <g id="_Group_"> <path id="_Path_" class="cls-1" d="M68,37.17V69C68,79.9,85,88.75,106,88.75S143.9,79.9,143.9,69V37.17Z"></path> <path class="cls-2" d="M106,91.38C83.22,91.38,65.4,81.54,65.4,69V37.17A2.63,2.63,0,0,1,68,34.53H143.9a2.63,2.63,0,0,1,2.63,2.63V69C146.53,81.54,128.71,91.38,106,91.38ZM70.67,39.8V69c0,9.29,16.17,17.14,35.3,17.14s35.3-7.85,35.3-17.14V39.8Z"></path> <polygon id="_Path_2" class="cls-1" points="169.19 42 105.97 67.28 42.75 42 105.97 16.71 169.19 42"></polygon> <path class="cls-2" d="M106,69.92a2.63,2.63,0,0,1-1-.19L41.77,44.44a2.63,2.63,0,0,1,0-4.89L105,14.26a2.63,2.63,0,0,1,2,0l63.22,25.29a2.63,2.63,0,0,1,0,4.89L106.95,69.73A2.63,2.63,0,0,1,106,69.92ZM49.84,42,106,64.45,162.09,42,106,19.55Z"></path> <path class="cls-3" d="M133.94,60.12a2.61,2.61,0,0,1-1.27-.33l-28-15.49a2.63,2.63,0,0,1,2.55-4.61l28,15.49a2.63,2.63,0,0,1-1.28,4.94Z"></path> <path class="cls-3" d="M133.94,103.2a2.63,2.63,0,0,1-2.63-2.63V57.49a2.63,2.63,0,1,1,5.27,0v43.08A2.63,2.63,0,0,1,133.94,103.2Z"></path> <polygon id="_Path_3" class="cls-1" points="137.4 71.73 130.47 71.73 128.96 105.77 138.92 105.77 137.4 71.73"></polygon> <path class="cls-3" d="M138.92,108.4H129a2.63,2.63,0,0,1-2.63-2.75l1.52-34a2.64,2.64,0,0,1,2.63-2.52h6.93A2.64,2.64,0,0,1,140,71.61l1.52,34a2.63,2.63,0,0,1-2.63,2.75Zm-7.21-5.27h4.45l-1.28-28.77H133Z"></path> </g> </svg>